Coordinates
version=1
nRows=8
nColumns=40
inDegrees=yes

Units are S.I. units (second, meters, Newtons, ...)
If the header above contains a line with 'inDegrees', this indicates whether rotational values are in degrees (yes) or radians (no).

endheader
time	pelvis_tilt	pelvis_list	pelvis_rotation	pelvis_tx	pelvis_ty	pelvis_tz	hip_flexion_r	hip_adduction_r	hip_rotation_r	knee_angle_r	knee_angle_r_beta	ankle_angle_r	subtalar_angle_r	mtp_angle_r	hip_flexion_l	hip_adduction_l	hip_rotation_l	knee_angle_l	knee_angle_l_beta	ankle_angle_l	subtalar_angle_l	mtp_angle_l	lumbar_extension	lumbar_bending	lumbar_rotation	arm_flex_r	arm_add_r	arm_rot_r	elbow_flex_r	pro_sup_r	wrist_flex_r	wrist_dev_r	arm_flex_l	arm_add_l	arm_rot_l	elbow_flex_l	pro_sup_l	wrist_flex_l	wrist_dev_l
      2.46000000	     -1.74972386	      3.80230842	      6.78238120	     -0.32635545	      1.01400223	     -0.77772651	     23.70218597	     -5.86278402	    -16.18060207	     46.44713794	      0.81065549	     13.11047203	      0.00000000	      0.00000000	     17.53346087	     -9.14859822	     -4.63080173	     96.28751894	      1.68053423	    -11.08817941	      0.00000000	      0.00000000	     -9.60344218	      4.53535699	      1.27466093	     89.90786848	    -18.29248065	     28.03717229	     37.99435911	     81.08359372	      0.00000000	      0.00000000	     89.90992999	     -8.85377400	     32.69753854	     37.36183752	     81.10648463	      0.00000000	      0.00000000
      2.46500000	     -1.76867083	      3.67545753	      6.78280211	     -0.32645359	      1.01334118	     -0.77774746	     23.85796457	     -5.71092254	    -16.10263742	     46.68417873	      0.81479263	     13.12121863	      0.00000000	      0.00000000	     17.61501635	     -9.30318883	     -4.62257397	     96.42573797	      1.68294661	    -11.09993728	      0.00000000	      0.00000000	     -9.61773385	      4.69844651	      1.22507750	     89.90906126	    -18.40004936	     28.03244172	     38.28822568	     85.13853587	      0.00000000	      0.00000000	     89.91066675	     -9.13717917	     32.50242489	     37.64245850	     85.20826835	      0.00000000	      0.00000000
      2.47000000	     -1.70190074	      3.71542798	      6.79782039	     -0.32652944	      1.01288392	     -0.77789791	     23.85053440	     -5.72485631	    -16.02910540	     46.81669390	      0.81710545	     13.28621412	      0.00000000	      0.00000000	     17.54348974	     -9.19523282	     -4.56788695	     96.44710757	      1.68331958	    -11.16938565	      0.00000000	      0.00000000	     -9.69700617	      4.65788740	      1.19595957	     89.90903720	    -18.25262754	     28.13144241	     38.12933280	     81.10434560	      0.00000000	      0.00000000	     89.91145712	     -8.97052613	     32.55768987	     37.48578497	     81.16029286	      0.00000000	      0.00000000
      2.47500000	     -1.76212140	      3.68302170	      6.75998405	     -0.32656517	      1.01223478	     -0.77788727	     23.99631332	     -5.63212231	    -15.84101351	     46.91718329	      0.81885932	     13.33363629	      0.00000000	      0.00000000	     17.60277141	     -9.24976776	     -4.63614617	     96.54737441	      1.68506957	    -11.15775100	      0.00000000	      0.00000000	     -9.65797240	      4.68283042	      1.22989368	     89.90953568	    -18.38524065	     28.01640553	     38.27949278	     85.11080871	      0.00000000	      0.00000000	     89.91171914	     -9.13253369	     32.33947401	     37.69488687	     85.23784914	      0.00000000	      0.00000000
      2.48000000	     -1.82416690	      3.73527764	      6.76211919	     -0.32671604	      1.01156275	     -0.77793786	     24.16165484	     -5.65314179	    -15.69245796	     47.10722459	      0.82217617	     13.45298640	      0.00000000	      0.00000000	     17.67383068	     -9.16351889	     -4.65886903	     96.60255017	      1.68603257	    -11.21180733	      0.00000000	      0.00000000	     -9.62907961	      4.61596607	      1.18156387	     89.90991690	    -18.32674528	     27.95422953	     38.28678946	     85.12901030	      0.00000000	      0.00000000	     89.91223034	     -9.18825437	     32.25357092	     37.78758955	     85.21101277	      0.00000000	      0.00000000
      2.48500000	     -1.86012296	      3.74505496	      6.78795299	     -0.32685138	      1.01089618	     -0.77798883	     24.27329630	     -5.62478763	    -15.55969083	     47.22217523	      0.82418244	     13.52586579	      0.00000000	      0.00000000	     17.74253914	     -9.10768734	     -4.61849257	     96.69161522	      1.68758704	    -11.25027567	      0.00000000	      0.00000000	     -9.62648556	      4.59625487	      1.14049846	     89.91035056	    -18.31668739	     27.93168078	     38.30214114	     85.11186717	      0.00000000	      0.00000000	     89.91283809	     -9.21118597	     32.13720201	     37.88790472	     85.12592721	      0.00000000	      0.00000000
      2.49000000	     -1.90181332	      3.72598834	      6.79775928	     -0.32693948	      1.01018305	     -0.77808193	     24.43278057	     -5.57097361	    -15.40143739	     47.42696254	      0.82775665	     13.72187373	      0.00000000	      0.00000000	     17.80401219	     -9.09624190	     -4.58699758	     96.77240894	      1.68899716	    -11.29080162	      0.00000000	      0.00000000	     -9.59777888	      4.60522599	      1.13342090	     89.91068574	    -18.32102668	     27.97750962	     38.29781670	     84.95475875	      0.00000000	      0.00000000	     89.91292256	     -9.21359657	     32.12573389	     37.92452490	     85.02066950	      0.00000000	      0.00000000
      2.49500000	     -1.87899359	      3.67584382	      6.77918113	     -0.32695677	      1.00956524	     -0.77800559	     24.49549037	     -5.44017475	    -15.24446355	     47.55262619	      0.82994990	     13.80167385	      0.00000000	      0.00000000	     17.79337175	     -9.15376835	     -4.58457306	     96.84641018	      1.69028873	    -11.36158059	      0.00000000	      0.00000000	     -9.64091372	      4.64723132	      1.08459692	     89.91175013	    -18.31198596	     28.63873992	     38.43710684	     81.63825110	      0.00000000	      0.00000000	     89.91356323	     -9.36896353	     32.59598101	     38.17325770	     81.66350123	      0.00000000	      0.00000000
